<mxfile host="app.diagrams.net" modified="2024-08-23T15:32:36.969Z" agent="Mozilla/5.0 (X11; Ubuntu; Linux x86_64; rv:129.0) Gecko/20100101 Firefox/129.0" etag="UUONNDCycU9qtALUsjzy" version="24.6.5" type="github">
  <diagram name="Water Detection Flowchart" id="MxOlBU5HVFOdAPnkr_2M">
    <mxGraphModel dx="1024" dy="564" grid="1" gridSize="10" guides="1" tooltips="1" connect="1" arrows="1" fold="1" page="1" pageScale="1" pageWidth="850" pageHeight="1100" math="0" shadow="0">
      <root>
        <mxCell id="0" />
        <mxCell id="1" parent="0" />
        <mxCell id="22_dL7FneAhgLtqru_zd-31" value="Start" style="ellipse;whiteSpace=wrap;html=1;fontStyle=3;fontFamily=Verdana;" vertex="1" parent="1">
          <mxGeometry x="580" y="50" width="100" height="60" as="geometry" />
        </mxCell>
        <mxCell id="22_dL7FneAhgLtqru_zd-32" value="Setup Phase" style="rounded=1;whiteSpace=wrap;html=1;fontStyle=3;fontFamily=Verdana;" vertex="1" parent="1">
          <mxGeometry x="573.3299999999999" y="140" width="116.67" height="100" as="geometry" />
        </mxCell>
        <mxCell id="22_dL7FneAhgLtqru_zd-50" style="edgeStyle=orthogonalEdgeStyle;rounded=0;orthogonalLoop=1;jettySize=auto;html=1;exitX=1;exitY=0.5;exitDx=0;exitDy=0;entryX=1;entryY=0.5;entryDx=0;entryDy=0;fontStyle=3;fontFamily=Verdana;fontColor=#FF0011;" edge="1" parent="1" source="22_dL7FneAhgLtqru_zd-34" target="22_dL7FneAhgLtqru_zd-32">
          <mxGeometry relative="1" as="geometry">
            <mxPoint x="790" y="190" as="targetPoint" />
            <Array as="points">
              <mxPoint x="830" y="330" />
              <mxPoint x="830" y="190" />
            </Array>
          </mxGeometry>
        </mxCell>
        <mxCell id="22_dL7FneAhgLtqru_zd-55" value="&lt;div&gt;NO&lt;/div&gt;" style="edgeLabel;html=1;align=center;verticalAlign=middle;resizable=0;points=[];" vertex="1" connectable="0" parent="22_dL7FneAhgLtqru_zd-50">
          <mxGeometry x="-0.0384" relative="1" as="geometry">
            <mxPoint as="offset" />
          </mxGeometry>
        </mxCell>
        <mxCell id="22_dL7FneAhgLtqru_zd-34" value="Water Detected?" style="rhombus;whiteSpace=wrap;html=1;fontStyle=3;fontFamily=Verdana;" vertex="1" parent="1">
          <mxGeometry x="555" y="280" width="150" height="100" as="geometry" />
        </mxCell>
        <mxCell id="22_dL7FneAhgLtqru_zd-51" style="edgeStyle=orthogonalEdgeStyle;rounded=0;orthogonalLoop=1;jettySize=auto;html=1;entryX=-0.003;entryY=0.46;entryDx=0;entryDy=0;entryPerimeter=0;fontStyle=3;fontFamily=Verdana;" edge="1" parent="1" source="22_dL7FneAhgLtqru_zd-35" target="22_dL7FneAhgLtqru_zd-34">
          <mxGeometry relative="1" as="geometry">
            <mxPoint x="470" y="340" as="targetPoint" />
            <Array as="points">
              <mxPoint x="490" y="470" />
              <mxPoint x="490" y="326" />
            </Array>
          </mxGeometry>
        </mxCell>
        <mxCell id="22_dL7FneAhgLtqru_zd-35" value="Initial Wait Done?" style="rhombus;whiteSpace=wrap;html=1;fontStyle=3;fontFamily=Verdana;" vertex="1" parent="1">
          <mxGeometry x="555" y="420" width="150" height="100" as="geometry" />
        </mxCell>
        <mxCell id="22_dL7FneAhgLtqru_zd-52" style="edgeStyle=orthogonalEdgeStyle;rounded=0;orthogonalLoop=1;jettySize=auto;html=1;exitX=0.5;exitY=1;exitDx=0;exitDy=0;entryX=0.5;entryY=0;entryDx=0;entryDy=0;fontStyle=3;fontFamily=Verdana;" edge="1" parent="1" source="22_dL7FneAhgLtqru_zd-36" target="22_dL7FneAhgLtqru_zd-37">
          <mxGeometry relative="1" as="geometry" />
        </mxCell>
        <mxCell id="22_dL7FneAhgLtqru_zd-36" value="Call Based on Pins" style="rounded=1;whiteSpace=wrap;html=1;fontStyle=3;fontFamily=Verdana;" vertex="1" parent="1">
          <mxGeometry x="553.32" y="552.85" width="156.68" height="67.15" as="geometry" />
        </mxCell>
        <mxCell id="22_dL7FneAhgLtqru_zd-54" style="edgeStyle=orthogonalEdgeStyle;rounded=0;orthogonalLoop=1;jettySize=auto;html=1;exitX=0;exitY=0.5;exitDx=0;exitDy=0;entryX=0;entryY=0.5;entryDx=0;entryDy=0;fontStyle=3;fontFamily=Verdana;" edge="1" parent="1" source="22_dL7FneAhgLtqru_zd-37" target="22_dL7FneAhgLtqru_zd-32">
          <mxGeometry relative="1" as="geometry">
            <mxPoint x="420" y="240" as="targetPoint" />
            <Array as="points">
              <mxPoint x="410" y="700" />
              <mxPoint x="410" y="190" />
            </Array>
          </mxGeometry>
        </mxCell>
        <mxCell id="22_dL7FneAhgLtqru_zd-37" value="Delay 5 min" style="rounded=1;whiteSpace=wrap;html=1;fontStyle=3;fontFamily=Verdana;" vertex="1" parent="1">
          <mxGeometry x="570" y="660" width="120" height="80" as="geometry" />
        </mxCell>
        <mxCell id="22_dL7FneAhgLtqru_zd-41" style="fontStyle=3;fontFamily=Verdana;" edge="1" parent="1" source="22_dL7FneAhgLtqru_zd-31" target="22_dL7FneAhgLtqru_zd-32">
          <mxGeometry relative="1" as="geometry" />
        </mxCell>
        <mxCell id="22_dL7FneAhgLtqru_zd-42" style="fontStyle=3;fontFamily=Verdana;" edge="1" parent="1" source="22_dL7FneAhgLtqru_zd-32" target="22_dL7FneAhgLtqru_zd-34">
          <mxGeometry relative="1" as="geometry">
            <mxPoint x="631.6618749999998" y="290" as="targetPoint" />
          </mxGeometry>
        </mxCell>
        <mxCell id="22_dL7FneAhgLtqru_zd-44" style="fontStyle=3;fontFamily=Verdana;" edge="1" parent="1" source="22_dL7FneAhgLtqru_zd-34" target="22_dL7FneAhgLtqru_zd-35">
          <mxGeometry relative="1" as="geometry" />
        </mxCell>
        <mxCell id="22_dL7FneAhgLtqru_zd-45" style="fontStyle=3;fontFamily=Verdana;" edge="1" parent="1" source="22_dL7FneAhgLtqru_zd-35" target="22_dL7FneAhgLtqru_zd-36">
          <mxGeometry relative="1" as="geometry" />
        </mxCell>
      </root>
    </mxGraphModel>
  </diagram>
</mxfile>
